<svg width="17" height="16" viewBox="0 0 17 16" fill="none" xmlns="http://www.w3.org/2000/svg">
<path d="M12.442 12.226H10.6654V9.44133C10.6654 8.77733 10.652 7.92267 9.73868 7.92267C8.81268 7.92267 8.67135 8.64533 8.67135 9.39267V12.226H6.89402V6.5H8.60068V7.28H8.62402C8.86268 6.83067 9.44268 6.35533 10.3094 6.35533C12.1094 6.35533 12.4427 7.54067 12.4427 9.08267L12.442 12.226ZM4.88735 5.71667C4.75172 5.71684 4.61739 5.69025 4.49206 5.6384C4.36673 5.58656 4.25286 5.51049 4.15699 5.41456C4.06112 5.31862 3.98512 5.20471 3.93336 5.07934C3.8816 4.95398 3.85509 4.81963 3.85535 4.684C3.85548 4.47989 3.91614 4.2804 4.02964 4.11076C4.14315 3.94113 4.30441 3.80896 4.49304 3.73097C4.68166 3.65298 4.88918 3.63268 5.08934 3.67263C5.2895 3.71258 5.47332 3.81098 5.61756 3.9554C5.76179 4.09983 5.85996 4.28377 5.89965 4.48399C5.93934 4.6842 5.91877 4.89169 5.84054 5.08021C5.76231 5.26873 5.62993 5.42983 5.46015 5.54311C5.29036 5.6564 5.09079 5.7168 4.88668 5.71667H4.88735ZM5.77802 12.226H3.99602V6.5H5.77802V12.226ZM13.3314 2H3.10468C2.61402 2 2.21802 2.38667 2.21802 2.86467V13.1353C2.21802 13.6133 2.61402 14 3.10335 14H13.3294C13.818 14 14.218 13.6133 14.218 13.1353V2.86467C14.218 2.38733 13.818 2 13.3287 2H13.3314Z" fill="black"/>
</svg>
