<svg width="133" height="29" viewBox="0 0 133 29" fill="none" xmlns="http://www.w3.org/2000/svg">
<path d="M1.51705 23V5.54545H8.40341C9.72727 5.54545 10.8551 5.7983 11.7869 6.30398C12.7188 6.80398 13.429 7.5 13.9176 8.39204C14.4119 9.27841 14.6591 10.3011 14.6591 11.4602C14.6591 12.6193 14.4091 13.642 13.9091 14.5284C13.4091 15.4148 12.6847 16.1051 11.7358 16.5994C10.7926 17.0937 9.65057 17.3409 8.30966 17.3409H3.92045V14.3835H7.71307C8.4233 14.3835 9.00852 14.2614 9.46875 14.017C9.93466 13.767 10.2813 13.4233 10.5085 12.9858C10.7415 12.5426 10.858 12.0341 10.858 11.4602C10.858 10.8807 10.7415 10.375 10.5085 9.94318C10.2813 9.50568 9.93466 9.16761 9.46875 8.92898C9.00284 8.68466 8.41193 8.5625 7.69602 8.5625H5.20739V23H1.51705ZM16.0961 23V5.54545H19.7864V12.7472H27.2779V5.54545H30.9597V23H27.2779V15.7898H19.7864V23H16.0961ZM49.0821 14.2727C49.0821 16.1761 48.7213 17.7955 47.9997 19.1307C47.2838 20.4659 46.3066 21.4858 45.0679 22.1903C43.835 22.8892 42.4486 23.2386 40.9088 23.2386C39.3577 23.2386 37.9657 22.8864 36.7327 22.1818C35.4997 21.4773 34.5253 20.4574 33.8094 19.1222C33.0935 17.7869 32.7355 16.1705 32.7355 14.2727C32.7355 12.3693 33.0935 10.75 33.8094 9.41477C34.5253 8.07955 35.4997 7.0625 36.7327 6.36364C37.9657 5.65909 39.3577 5.30682 40.9088 5.30682C42.4486 5.30682 43.835 5.65909 45.0679 6.36364C46.3066 7.0625 47.2838 8.07955 47.9997 9.41477C48.7213 10.75 49.0821 12.3693 49.0821 14.2727ZM45.3407 14.2727C45.3407 13.0398 45.156 12 44.7867 11.1534C44.423 10.3068 43.9088 9.66477 43.2441 9.22727C42.5793 8.78977 41.8009 8.57102 40.9088 8.57102C40.0168 8.57102 39.2384 8.78977 38.5736 9.22727C37.9088 9.66477 37.3918 10.3068 37.0225 11.1534C36.6588 12 36.477 13.0398 36.477 14.2727C36.477 15.5057 36.6588 16.5455 37.0225 17.392C37.3918 18.2386 37.9088 18.8807 38.5736 19.3182C39.2384 19.7557 40.0168 19.9744 40.9088 19.9744C41.8009 19.9744 42.5793 19.7557 43.2441 19.3182C43.9088 18.8807 44.423 18.2386 44.7867 17.392C45.156 16.5455 45.3407 15.5057 45.3407 14.2727ZM49.3941 8.58807V5.54545H63.7294V8.58807H58.3856V23H54.7379V8.58807H49.3941ZM80.3731 14.2727C80.3731 16.1761 80.0123 17.7955 79.2907 19.1307C78.5748 20.4659 77.5975 21.4858 76.3589 22.1903C75.1259 22.8892 73.7395 23.2386 72.1998 23.2386C70.6486 23.2386 69.2566 22.8864 68.0236 22.1818C66.7907 21.4773 65.8163 20.4574 65.1003 19.1222C64.3844 17.7869 64.0265 16.1705 64.0265 14.2727C64.0265 12.3693 64.3844 10.75 65.1003 9.41477C65.8163 8.07955 66.7907 7.0625 68.0236 6.36364C69.2566 5.65909 70.6486 5.30682 72.1998 5.30682C73.7395 5.30682 75.1259 5.65909 76.3589 6.36364C77.5975 7.0625 78.5748 8.07955 79.2907 9.41477C80.0123 10.75 80.3731 12.3693 80.3731 14.2727ZM76.6316 14.2727C76.6316 13.0398 76.4469 12 76.0776 11.1534C75.714 10.3068 75.1998 9.66477 74.535 9.22727C73.8702 8.78977 73.0918 8.57102 72.1998 8.57102C71.3077 8.57102 70.5293 8.78977 69.8645 9.22727C69.1998 9.66477 68.6827 10.3068 68.3134 11.1534C67.9498 12 67.768 13.0398 67.768 14.2727C67.768 15.5057 67.9498 16.5455 68.3134 17.392C68.6827 18.2386 69.1998 18.8807 69.8645 19.3182C70.5293 19.7557 71.3077 19.9744 72.1998 19.9744C73.0918 19.9744 73.8702 19.7557 74.535 19.3182C75.1998 18.8807 75.714 18.2386 76.0776 17.392C76.4469 16.5455 76.6316 15.5057 76.6316 14.2727ZM82.1467 23V5.54545H89.1354C90.4195 5.54545 91.4905 5.7358 92.3484 6.11648C93.2064 6.49716 93.8513 7.02557 94.2831 7.7017C94.7149 8.37216 94.9308 9.14489 94.9308 10.0199C94.9308 10.7017 94.7945 11.3011 94.5217 11.8182C94.249 12.3295 93.874 12.75 93.3967 13.0795C92.9251 13.4034 92.3854 13.6335 91.7774 13.7699V13.9403C92.4422 13.9687 93.0643 14.1562 93.6439 14.5028C94.2291 14.8494 94.7035 15.3352 95.0672 15.9602C95.4308 16.5795 95.6126 17.3182 95.6126 18.1761C95.6126 19.1023 95.3825 19.929 94.9223 20.6562C94.4678 21.3778 93.7945 21.9489 92.9024 22.3693C92.0104 22.7898 90.9109 23 89.6041 23H82.1467ZM85.8371 19.983H88.8456C89.874 19.983 90.624 19.7869 91.0956 19.3949C91.5672 18.9972 91.803 18.4687 91.803 17.8097C91.803 17.3267 91.6865 16.9006 91.4535 16.5312C91.2206 16.1619 90.8882 15.8722 90.4564 15.6619C90.0303 15.4517 89.5217 15.3466 88.9308 15.3466H85.8371V19.983ZM85.8371 12.8494H88.5729C89.0785 12.8494 89.5274 12.7614 89.9195 12.5852C90.3172 12.4034 90.6297 12.1477 90.857 11.8182C91.0899 11.4886 91.2064 11.0938 91.2064 10.6335C91.2064 10.0028 90.982 9.49432 90.5331 9.10795C90.0899 8.72159 89.4592 8.52841 88.641 8.52841H85.8371V12.8494ZM96.0312 5.54545H100.165L104.145 13.0625H104.315L108.295 5.54545H112.429L106.062 16.8295V23H102.398V16.8295L96.0312 5.54545Z" fill="black"/>
<rect x="121" y="8.5" width="12" height="12" rx="3" fill="black"/>
<circle cx="127" cy="14.5" r="2" fill="white"/>
</svg>
