<svg width="17" height="16" viewBox="0 0 17 16" fill="none" xmlns="http://www.w3.org/2000/svg">
<path d="M15.718 3.42188C15.1553 3.66637 14.56 3.82744 13.9508 3.90001C14.591 3.52512 15.0725 2.92956 15.3049 2.22501C14.6996 2.57894 14.0385 2.82728 13.3499 2.95938C13.0599 2.65548 12.7112 2.41373 12.3249 2.2488C11.9386 2.08388 11.5227 1.99923 11.1027 2.00001C9.40208 2.00001 8.02583 3.35626 8.02583 5.02813C8.02462 5.26068 8.05127 5.49254 8.10521 5.71876C6.88573 5.66159 5.69162 5.3505 4.59926 4.8054C3.5069 4.2603 2.54036 3.49318 1.76146 2.55313C1.4882 3.01379 1.34368 3.53939 1.34302 4.07501C1.34302 5.12501 1.89083 6.05313 2.71802 6.59688C2.22793 6.58525 1.74789 6.45554 1.31864 6.21876V6.25626C1.31864 7.72501 2.38114 8.94688 3.78739 9.22501C3.52295 9.2955 3.25045 9.33122 2.97677 9.33126C2.78257 9.33159 2.58882 9.31275 2.39833 9.275C2.78927 10.4781 3.92708 11.3531 5.27489 11.3781C4.1797 12.2222 2.83509 12.6784 1.45239 12.675C1.20696 12.6746 0.961757 12.66 0.718018 12.6313C2.12464 13.5294 3.75972 14.0045 5.42864 14C11.0961 14 14.1924 9.38438 14.1924 5.38126C14.1924 5.25001 14.189 5.11876 14.1827 4.99063C14.7837 4.56315 15.3036 4.03192 15.718 3.42188Z" fill="black"/>
</svg>
